<?xml version="1.0" encoding="utf-8"?>
<!-- Generator: Adobe Illustrator 24.2.1, SVG Export Plug-In . SVG Version: 6.00 Build 0)  -->
<svg version="1.1" id="Capa_1" xmlns="http://www.w3.org/2000/svg" xmlns:xlink="http://www.w3.org/1999/xlink" x="0px" y="0px"
	 width="20px" height="20px" viewBox="0 0 20 20" style="enable-background:new 0 0 20 20;" xml:space="preserve">
<style type="text/css">
	.st0{fill:#EEEEEE;}
</style>
<g>
	<path class="st0" d="M9.3,2.1C7.8,1,6,1.2,4.8,2C4,2.5,3.5,3.4,3.5,4.3l0,0l0,0v0.1c-1.2,0-2,0.7-2.5,1.4C0.6,6.7,0.5,7.6,0.9,8.2
		C0.4,8.6,0,9.3,0,10.2s0.3,1.7,0.8,2.2c-0.4,0.9-0.3,1.9,0.2,2.7c0.6,0.7,1.4,1,2.4,0.9c0,0.1,0,0.1,0.1,0.2h0.1
		c0.3,1,0.9,1.7,1.9,2.1c0.5,0.2,1,0.3,1.5,0.3c0.7,0,1.3-0.2,1.7-0.5s0.6-0.8,0.6-1.4V2.1L9.3,2.1z M8.5,17.7
		c-0.6,0.5-1.8,0.5-2.7,0.1C5.2,17.6,4.2,17,4,15.6v-0.3l0,0c0.1-0.3,0.4-0.5,0.8-0.8c0.8-0.5,1.8-1.3,0.7-3.3L5,11.5
		c0.9,1.6,0.2,2.1-0.6,2.6c-0.5,0.3-1,0.7-1,1.3c-0.8,0.1-1.5-0.1-1.9-0.7C1,14.2,1,13.3,1.4,12.6l0,0c0.2-0.3,0.6-0.4,1.2-0.4
		c0.3,0,0.6,0.2,0.8,0.3c0.1,0.1,0.2,0.1,0.3,0.1l0.1-0.5c0,0-0.1-0.1-0.2-0.1c-0.3-0.1-0.6-0.3-1-0.3c-0.6,0-1.1,0.1-1.4,0.3
		c-0.4-0.4-0.7-1.1-0.7-1.8c0-0.8,0.4-1.4,0.9-1.7l0.3-0.2L1.5,8.1c-0.4-0.4-0.4-1.3,0-2C1.7,5.8,2.4,4.7,3.8,5
		c0.1,0.3,0.3,0.5,0.6,0.8c0,0.4-0.6,1-1,1.2l0.2,0.5c0.4-0.2,1-0.7,1.3-1.3C5.2,6.4,5.6,6.6,6,6.6V6.1C5,5.9,4.2,5.2,4,4.3
		c0-0.7,0.4-1.4,1.1-1.8C6,1.9,7.6,1.7,8.8,2.6v2C8.6,4.9,7.8,5,7.1,4.7c-0.2-0.1-1-0.5-0.9-1.2L5.7,3.4C5.6,4.2,6,4.9,6.9,5.2
		c0.3,0.1,0.7,0.2,1,0.2c0.3,0,0.7-0.1,0.9-0.2v3.1C8.6,8.2,8.2,8.1,8,8C6.9,7.8,6.1,8.2,5.6,9.3c-0.3,0.6-0.6,1.1-1.1,1
		C4.2,10.2,4,9.9,3.9,9.6C3.7,9.4,3.6,9.1,3.4,8.9l0.1-0.1c0.1-0.3,0-0.6-0.2-0.9L2.9,8.3C3,8.4,3,8.5,2.9,8.6
		c0,0.1-0.2,0.2-0.3,0.3c0,0-0.1,0-0.2-0.1L2.1,9.1c0.2,0.2,0.4,0.3,0.6,0.3h0.1c0.1,0,0.1,0,0.2-0.1c0.2,0.1,0.3,0.3,0.4,0.5
		c0.2,0.3,0.4,0.7,0.9,0.9c0.1,0,0.2,0,0.3,0c0.7,0,1.1-0.8,1.4-1.3c0.4-0.8,1-1.1,1.8-0.9c0.3,0,0.8,0.2,1,0.3v2.9
		c-0.2-0.1-0.4-0.1-0.7,0C7.5,11.8,7,12.4,6.8,13c-0.2,0.5,0,1,0.1,1.4s0.2,0.7,0.1,1.1c0,0.4-0.3,0.5-0.7,0.4l-0.1,0.5
		c0.1,0,0.2,0,0.3,0c0.5,0,1-0.3,1.2-0.9c0.2-0.5,0-1-0.1-1.4S7.4,13.4,7.5,13c0.1-0.4,0.5-0.8,0.9-0.9c0.2,0,0.4,0,0.5,0.1v4.4l0,0
		C8.9,17.1,8.8,17.4,8.5,17.7z"/>
	<path class="st0" d="M19.9,11.6L20,8.8h-1.5c-0.1-0.3-0.2-0.7-0.3-1L19.6,7l-1.4-2.5l-1.4,0.8c-0.2-0.2-0.5-0.5-0.7-0.7l0.8-1.4
		l-2.5-1.5l-0.9,1.5C13.3,3.1,13,3,12.7,2.9V1.2H11v17.4h1.7v-1.1c0.3-0.1,0.6-0.1,0.9-0.2l0.5,1l2.5-1.3l-0.5-1
		c0.3-0.2,0.5-0.5,0.8-0.7l1,0.6l1.5-2.4l-1.1-0.7c0.1-0.4,0.2-0.7,0.3-1.1L19.9,11.6z M11.5,6.7c1.6,0.1,2.9,1.5,2.9,3.2
		s-1.3,3.1-2.9,3.2V6.7z M11.5,13.6c1.9-0.1,3.5-1.8,3.5-3.7c0-2-1.5-3.6-3.5-3.7V5.1c2.5,0.1,4.6,2.3,4.6,4.8c0,2.6-2,4.7-4.6,4.8
		V13.6z M18.6,13.5l-1,1.5l-0.9-0.6l-0.1,0.2c-0.3,0.4-0.6,0.7-1,1l-0.2,0.1l0.5,0.9l-1.6,0.8l-0.5-0.9l-0.2,0.1
		c-0.4,0.1-0.8,0.2-1.2,0.3h-0.2v1h-0.6v-2.8c2.8-0.1,5.1-2.5,5.1-5.3c0-2.9-2.3-5.2-5.1-5.3V1.7h0.6v1.6h0.2
		c0.4,0.1,0.8,0.2,1.2,0.3l0.2,0.1l0.8-1.4l1.5,0.9l-0.8,1.4l0.2,0.1c0.3,0.3,0.7,0.6,0.9,0.9l0.1,0.2L18,5.2l0.9,1.6l-1.3,0.7
		l0.1,0.2C17.8,8.1,18,8.5,18.1,9v0.2h1.4L19.4,11h-1.3v0.2c-0.1,0.5-0.2,1-0.4,1.4l-0.1,0.2L18.6,13.5z"/>
</g>
</svg>
